# xmcd CD database file
#
# Track frame offsets:
#	150
#	19500
#	52275
#	76650
#	112050
#	138750
#	158160
#	176400
#	198000
#	229125
#
# Disc length: 3362 seconds
#
# Revision: 0
# Processed by: cddbd v1.5.2PL0 Copyright (c) Steve Scherf et al.
# Submitted via: CDex 1.70beta2
#
DISCID=750d200a
DTITLE=New York Trio - Thou Swell
DYEAR=1900
DGENRE=Jazz
TTITLE0=Thou Swell
TTITLE1=My Funny Valentine 
TTITLE2=I Didn't Know What Time It Was
TTITLE3=Where Or When
TTITLE4=My Heart Stood Still 
TTITLE5=That's For Me
TTITLE6=Have You Met Miss Jones?
TTITLE7=There's A Small Hotel
TTITLE8=With A Song In My Heart
TTITLE9=Wait Till You See Her
EXTD=
EXTT0=
EXTT1=
EXTT2=
EXTT3=
EXTT4=
EXTT5=
EXTT6=
EXTT7=
EXTT8=
EXTT9=
PLAYORDER=
